<svg width="138" height="152" viewBox="0 0 138 152" fill="none" xmlns="http://www.w3.org/2000/svg">
<rect x="24" y="118" width="90" height="4" rx="2" fill="#323238"/>
<circle cx="32" cy="120" r="8" fill="#323238"/>
<path d="M94.1836 48.9667V75.3333C94.1836 76.5778 93.7657 77.6667 92.9298 78.6C92.0939 79.5333 91.1187 80 90.0043 80H48.1411C47.0266 80 46.0514 79.5333 45.2155 78.6C44.3797 77.6667 43.9617 76.5778 43.9617 75.3333V48.9667C42.6615 47.7222 41.8024 46.1926 41.3845 44.3778C40.9665 42.563 41.013 40.7481 41.5238 38.9333L44.519 28.4333C44.8905 27.0333 45.5406 25.9444 46.4693 25.1667C47.3981 24.3889 48.4661 24 49.6735 24H88.1932C89.4934 24 90.6312 24.4019 91.6063 25.2056C92.5815 26.0093 93.2549 27.0852 93.6264 28.4333L96.6912 38.9333C97.202 40.7481 97.2369 42.563 96.7957 44.3778C96.3545 46.1926 95.4838 47.7222 94.1836 48.9667ZM75.3765 46.5556C76.7232 46.5556 77.8609 46.063 78.7897 45.0778C79.7184 44.0926 80.0899 42.9 79.9042 41.5L78.1628 28.6667H71.1972V41.5C71.1972 42.8481 71.5919 44.0278 72.3813 45.0389C73.1708 46.05 74.1692 46.5556 75.3765 46.5556ZM62.3509 46.5556C63.6511 46.5556 64.754 46.063 65.6595 45.0778C66.5651 44.0926 67.0178 42.9 67.0178 41.5V28.6667H60.0522L58.3108 41.5C58.1251 42.8481 58.4501 44.0278 59.286 45.0389C60.1219 46.05 61.1435 46.5556 62.3509 46.5556ZM49.6735 46.5556C50.788 46.5556 51.7516 46.1278 52.5642 45.2722C53.3769 44.4167 53.8529 43.3667 53.9922 42.1222L55.8032 28.6667H48.8376L45.6335 40.0222C45.1691 41.6296 45.3548 43.1204 46.1907 44.4944C47.0266 45.8685 48.1875 46.5556 49.6735 46.5556ZM88.4718 46.5556C89.9578 46.5556 91.1304 45.8815 91.9894 44.5333C92.8485 43.1852 93.0459 41.6815 92.5815 40.0222L89.3773 28.6667H82.4118L84.2228 42.1222C84.3621 43.3667 84.8381 44.4167 85.6508 45.2722C86.4634 46.1278 87.4038 46.5556 88.4718 46.5556ZM48.1411 75.3333H90.0043V51.1444C90.0507 51.1963 89.8998 51.2222 89.5515 51.2222C89.2032 51.2222 88.8433 51.2222 88.4718 51.2222C87.3109 51.2222 86.208 50.95 85.1632 50.4056C84.1183 49.8611 83.0851 49.0185 82.0635 47.8778C81.3205 48.9148 80.3917 49.7315 79.2773 50.3278C78.1628 50.9241 76.9322 51.2222 75.5855 51.2222C74.1924 51.2222 72.9966 51.0019 71.9982 50.5611C70.9998 50.1204 70.0362 49.3815 69.1075 48.3444C68.4109 49.2778 67.5286 49.9907 66.4606 50.4833C65.3925 50.9759 64.1851 51.2222 62.8385 51.2222C61.3989 51.2222 60.1219 50.937 59.0074 50.3667C57.8929 49.7963 56.9409 48.9667 56.1515 47.8778C55.037 48.9667 53.9457 49.7963 52.8777 50.3667C51.8096 50.937 50.7416 51.2222 49.6735 51.2222C49.3484 51.2222 49.035 51.2222 48.7332 51.2222C48.4313 51.2222 48.234 51.1963 48.1411 51.1444V75.3333ZM90.0043 75.3333H48.1411C48.234 75.3333 48.4313 75.3333 48.7332 75.3333C49.035 75.3333 49.3484 75.3333 49.6735 75.3333C50.4629 75.3333 51.4033 75.3333 52.4946 75.3333C53.5858 75.3333 54.8048 75.3333 56.1515 75.3333C56.5694 75.3333 57.0338 75.3333 57.5446 75.3333C58.0554 75.3333 58.6011 75.3333 59.1815 75.3333C59.762 75.3333 60.3541 75.3333 60.9578 75.3333C61.5614 75.3333 62.1883 75.3333 62.8385 75.3333C63.3493 75.3333 63.8833 75.3333 64.4406 75.3333C64.9978 75.3333 65.555 75.3333 66.1123 75.3333C66.6695 75.3333 67.2036 75.3333 67.7144 75.3333C68.2252 75.3333 68.6896 75.3333 69.1075 75.3333C70.1291 75.3333 71.1507 75.3333 72.1724 75.3333C73.194 75.3333 74.3317 75.3333 75.5855 75.3333C76.2356 75.3333 76.8741 75.3333 77.501 75.3333C78.1279 75.3333 78.72 75.3333 79.2773 75.3333C79.8345 75.3333 80.3453 75.3333 80.8097 75.3333C81.2741 75.3333 81.692 75.3333 82.0635 75.3333C83.1315 75.3333 84.1996 75.3333 85.2677 75.3333C86.3357 75.3333 87.4038 75.3333 88.4718 75.3333C88.8433 75.3333 89.2032 75.3333 89.5515 75.3333C89.8998 75.3333 90.0507 75.3333 90.0043 75.3333Z" fill="#323238"/>
</svg>
