<svg width="138" height="152" viewBox="0 0 138 152" fill="none" xmlns="http://www.w3.org/2000/svg">
<rect x="24" y="118" width="90" height="4" rx="2" fill="#323238"/>
<circle cx="32" cy="120" r="8" fill="#323238"/>
<path d="M49.7215 56.4211C49.7215 59.5158 50.4215 62.4263 51.8215 65.1526C53.2215 67.8789 55.1741 70.1509 57.6794 71.9684C57.4829 71.3789 57.3355 70.7772 57.2373 70.1632C57.139 69.5491 57.0899 68.9474 57.0899 68.3579C57.0899 66.786 57.3846 65.3123 57.9741 63.9368C58.5636 62.5614 59.4232 61.3088 60.553 60.1789L68.8794 52L77.2057 60.1789C78.3355 61.3088 79.1951 62.5614 79.7846 63.9368C80.3741 65.3123 80.6688 66.786 80.6688 68.3579C80.6688 68.9474 80.6197 69.5491 80.5215 70.1632C80.4232 70.7772 80.2759 71.3789 80.0794 71.9684C82.5846 70.1509 84.5373 67.8789 85.9373 65.1526C87.3373 62.4263 88.0373 59.5158 88.0373 56.4211C88.0373 53.7684 87.4723 51.1772 86.3425 48.6474C85.2127 46.1175 83.5916 43.7965 81.4794 41.6842C80.4478 42.4211 79.3671 42.9982 78.2373 43.4158C77.1074 43.8333 75.9776 44.0421 74.8478 44.0421C71.8513 44.0421 69.3706 43.0228 67.4057 40.9842C65.4408 38.9456 64.4583 36.3789 64.4583 33.2842V31.8105C62.1987 33.4316 60.1601 35.2246 58.3425 37.1895C56.525 39.1544 54.9776 41.2053 53.7004 43.3421C52.4232 45.4789 51.4408 47.6649 50.753 49.9C50.0653 52.1351 49.7215 54.3088 49.7215 56.4211ZM68.8794 58.1895L63.6478 63.3474C62.9601 64.0351 62.432 64.7965 62.0636 65.6316C61.6952 66.4667 61.5109 67.3754 61.5109 68.3579C61.5109 70.3719 62.2232 72.0789 63.6478 73.4789C65.0723 74.8789 66.8162 75.5789 68.8794 75.5789C70.9425 75.5789 72.6864 74.8789 74.1109 73.4789C75.5355 72.0789 76.2478 70.3719 76.2478 68.3579C76.2478 67.3754 76.0636 66.4667 75.6951 65.6316C75.3267 64.7965 74.7987 64.0351 74.1109 63.3474L68.8794 58.1895ZM68.8794 24V33.7263C68.8794 35.3965 69.4566 36.7965 70.6109 37.9263C71.7653 39.0561 73.1776 39.6211 74.8478 39.6211C75.732 39.6211 76.5548 39.4368 77.3162 39.0684C78.0776 38.7 78.753 38.1474 79.3425 37.4105L80.6688 35.7895C84.3039 37.8526 87.1776 40.7263 89.2899 44.4105C91.4022 48.0947 92.4583 52.0982 92.4583 56.4211C92.4583 63.0035 90.1741 68.5789 85.6057 73.1474C81.0373 77.7158 75.4618 80 68.8794 80C62.2969 80 56.7215 77.7158 52.153 73.1474C47.5846 68.5789 45.3004 63.0035 45.3004 56.4211C45.3004 50.1333 47.4127 44.0789 51.6373 38.2579C55.8618 32.4368 61.6092 27.6842 68.8794 24Z" fill="#323238"/>
</svg>
