<svg width="138" height="152" viewBox="0 0 138 152" fill="none" xmlns="http://www.w3.org/2000/svg">
<rect x="24" y="118" width="90" height="4" rx="2" fill="#323238"/>
<circle cx="32" cy="120" r="8" fill="#323238"/>
<path d="M51.8355 80V75.8H67.0329V63.2H60.8158C56.9934 63.2 53.7352 61.835 51.0411 59.105C48.347 56.375 47 53.0733 47 49.2C47 46.4 47.7599 43.8217 49.2796 41.465C50.7993 39.1083 52.8487 37.3933 55.4276 36.32C55.8421 32.82 57.3503 29.8917 59.9523 27.535C62.5543 25.1783 65.6053 24 69.1053 24C72.6053 24 75.6562 25.1783 78.2582 27.535C80.8602 29.8917 82.3684 32.82 82.7829 36.32C85.3618 37.3933 87.4112 39.1083 88.9309 41.465C90.4507 43.8217 91.2105 46.4 91.2105 49.2C91.2105 53.0733 89.8635 56.375 87.1694 59.105C84.4753 61.835 81.2171 63.2 77.3947 63.2H71.1776V75.8H87.0658V80H51.8355ZM60.8158 59H77.3947C80.0658 59 82.3454 58.0433 84.2336 56.13C86.1217 54.2167 87.0658 51.9067 87.0658 49.2C87.0658 47.24 86.5132 45.455 85.4079 43.845C84.3026 42.235 82.875 41.0333 81.125 40.24L78.9145 39.26L78.6382 36.81C78.3158 34.3367 77.2566 32.2833 75.4605 30.65C73.6645 29.0167 71.5461 28.2 69.1053 28.2C66.6645 28.2 64.5461 29.0167 62.75 30.65C60.9539 32.2833 59.8947 34.3367 59.5724 36.81L59.2961 39.26L57.0855 40.24C55.3355 41.0333 53.9079 42.235 52.8026 43.845C51.6974 45.455 51.1447 47.24 51.1447 49.2C51.1447 51.9067 52.0888 54.2167 53.977 56.13C55.8651 58.0433 58.1447 59 60.8158 59Z" fill="#323238"/>
</svg>
