<svg width="138" height="152" viewBox="0 0 138 152" fill="none" xmlns="http://www.w3.org/2000/svg">
<rect x="24" y="118" width="90" height="4" rx="2" fill="#323238"/>
<circle cx="57" cy="120" r="8" fill="#323238"/>
<path d="M53.5263 69.3333C52.9123 69.3333 52.375 69.1 51.9145 68.6333C51.4539 68.1667 51.2237 67.6222 51.2237 67C51.2237 66.3778 51.4539 65.8333 51.9145 65.3667C52.375 64.9 52.9123 64.6667 53.5263 64.6667C54.1404 64.6667 54.6776 64.9 55.1382 65.3667C55.5987 65.8333 55.8289 66.3778 55.8289 67C55.8289 67.6222 55.5987 68.1667 55.1382 68.6333C54.6776 69.1 54.1404 69.3333 53.5263 69.3333ZM85.1053 69.3333C84.4912 69.3333 83.9539 69.1 83.4934 68.6333C83.0329 68.1667 82.8026 67.6222 82.8026 67C82.8026 66.3778 83.0329 65.8333 83.4934 65.3667C83.9539 64.9 84.4912 64.6667 85.1053 64.6667C85.7193 64.6667 86.2566 64.9 86.7171 65.3667C87.1776 65.8333 87.4079 66.3778 87.4079 67C87.4079 67.6222 87.1776 68.1667 86.7171 68.6333C86.2566 69.1 85.7193 69.3333 85.1053 69.3333ZM61.4211 80C60.807 80 60.2697 79.7667 59.8092 79.3C59.3487 78.8333 59.1184 78.2889 59.1184 77.6667C59.1184 77.0444 59.3487 76.5 59.8092 76.0333C60.2697 75.5667 60.807 75.3333 61.4211 75.3333C62.0351 75.3333 62.5724 75.5667 63.0329 76.0333C63.4934 76.5 63.7237 77.0444 63.7237 77.6667C63.7237 78.2889 63.4934 78.8333 63.0329 79.3C62.5724 79.7667 62.0351 80 61.4211 80ZM69.3158 69.3333C68.7018 69.3333 68.1645 69.1 67.7039 68.6333C67.2434 68.1667 67.0132 67.6222 67.0132 67C67.0132 66.3778 67.2434 65.8333 67.7039 65.3667C68.1645 64.9 68.7018 64.6667 69.3158 64.6667C69.9298 64.6667 70.4671 64.9 70.9276 65.3667C71.3882 65.8333 71.6184 66.3778 71.6184 67C71.6184 67.6222 71.3882 68.1667 70.9276 68.6333C70.4671 69.1 69.9298 69.3333 69.3158 69.3333ZM77.2105 80C76.5965 80 76.0592 79.7667 75.5987 79.3C75.1382 78.8333 74.9079 78.2889 74.9079 77.6667C74.9079 77.0444 75.1382 76.5 75.5987 76.0333C76.0592 75.5667 76.5965 75.3333 77.2105 75.3333C77.8246 75.3333 78.3618 75.5667 78.8224 76.0333C79.2829 76.5 79.5132 77.0444 79.5132 77.6667C79.5132 78.2889 79.2829 78.8333 78.8224 79.3C78.3618 79.7667 77.8246 80 77.2105 80ZM56.8158 60C53 60 49.7434 58.6333 47.0461 55.9C44.3487 53.1667 43 49.8667 43 46C43 42.4889 44.239 39.3556 46.7171 36.6C49.1952 33.8444 52.2763 32.3333 55.9605 32.0667C57.364 29.5778 59.2171 27.6111 61.5197 26.1667C63.8224 24.7222 66.4211 24 69.3158 24C73.307 24 76.6513 25.2778 79.3487 27.8333C82.0461 30.3889 83.7018 33.5556 84.3158 37.3333C87.7807 37.5111 90.5329 38.7 92.5724 40.9C94.6118 43.1 95.6316 45.6889 95.6316 48.6667C95.6316 51.7778 94.5461 54.4444 92.375 56.6667C90.2039 58.8889 87.5614 60 84.4474 60H56.8158ZM56.8158 56H84.4474C86.4649 56 88.1754 55.2778 89.5789 53.8333C90.9825 52.3889 91.6842 50.6444 91.6842 48.6C91.6842 46.6 90.9825 44.8889 89.5789 43.4667C88.1754 42.0444 86.4649 41.3333 84.4474 41.3333H80.5V39.3333C80.5 36.1778 79.4145 33.5 77.2434 31.3C75.0724 29.1 72.4298 28 69.3158 28C67.0789 28 65.0285 28.6111 63.1645 29.8333C61.3004 31.0556 59.9298 32.7111 59.0526 34.8L58.5263 36H56.6842C53.9649 36.0889 51.6623 37.1 49.7763 39.0333C47.8904 40.9667 46.9474 43.2889 46.9474 46C46.9474 48.7556 47.9123 51.1111 49.8421 53.0667C51.7719 55.0222 54.0965 56 56.8158 56Z" fill="#323238"/>
</svg>
