<svg width="48" height="48" viewBox="0 0 63 63" fill="none" xmlns="http://www.w3.org/2000/svg">
    <path d="M0 26C0 11.6454 11.6454 0 26 0C40.3546 0 52 11.6454 52 26C52 40.3546 40.3546 52 26 52C11.6454 52 0 40.3546 0 26ZM26 4C13.8546 4 4 13.8546 4 26C4 38.1454 13.8546 48 26 48C38.1454 48 48 38.1454 48 26C48 13.8546 38.1454 4 26 4Z" fill="#323238"/>
    <path d="M20 16C21.1046 16 22 16.8954 22 18V34C22 35.1046 21.1046 36 20 36C18.8954 36 18 35.1046 18 34V18C18 16.8954 18.8954 16 20 16Z" fill="#323238"/>
    <path d="M32 16C33.1046 16 34 16.8954 34 18V34C34 35.1046 33.1046 36 32 36C30.8954 36 30 35.1046 30 34V18C30 16.8954 30.8954 16 32 16Z" fill="#323238"/>
</svg>